<?xml version="1.0" encoding="utf-8"?>
<!-- Generator: Adobe Illustrator 16.0.0, SVG Export Plug-In . SVG Version: 6.00 Build 0)  -->
<!DOCTYPE svg PUBLIC "-//W3C//DTD SVG 1.1//EN" "http://www.w3.org/Graphics/SVG/1.1/DTD/svg11.dtd">
<svg version="1.1" id="Layer_1" xmlns="http://www.w3.org/2000/svg" xmlns:xlink="http://www.w3.org/1999/xlink" x="0px" y="0px"
	 width="144.173px" height="143.561px" viewBox="0 0 144.173 143.561" enable-background="new 0 0 144.173 143.561"
	 xml:space="preserve">
<path fill="#E29A54" stroke="#E19A55" stroke-miterlimit="10" d="M143.673,139.181c0,2.143-1.78,3.88-3.977,3.88H4.477
	c-2.196,0-3.977-1.737-3.977-3.88V7.266c0-2.143,1.78-3.88,3.977-3.88h135.22c2.196,0,3.977,1.738,3.977,3.88V139.181z"/>
<rect x="13.472" y="18.454" fill="#FFFFFF" stroke="#FFFFFF" stroke-miterlimit="10" width="117.411" height="109.652"/>
<path fill="#D3D2D2" d="M114.23,13.037V24.68c0,1.029-1.577,1.863-3.521,1.863H33.282c-1.943,0-3.52-0.834-3.52-1.863V13.037H114.23
	z"/>
<path fill="#6E8096" d="M114.23,0v18.974c0,1.677-1.577,3.036-3.521,3.036H33.282c-1.943,0-3.52-1.359-3.52-3.036V0H114.23z"/>
<line fill="#E0E0D1" stroke="#E0E0D1" stroke-width="7" stroke-miterlimit="10" x1="29.763" y1="59.651" x2="114.23" y2="59.651"/>
<line fill="#E0E0D1" stroke="#E0E0D1" stroke-width="7" stroke-miterlimit="10" x1="29.581" y1="71.954" x2="114.049" y2="71.954"/>
<line fill="#E0E0D1" stroke="#E0E0D1" stroke-width="7" stroke-miterlimit="10" x1="29.763" y1="84.031" x2="114.23" y2="84.031"/>
<line fill="#E0E0D1" stroke="#E0E0D1" stroke-width="7" stroke-miterlimit="10" x1="29.943" y1="96.333" x2="114.411" y2="96.333"/>
<line fill="#E0E0D1" stroke="#E0E0D1" stroke-width="7" stroke-miterlimit="10" x1="29.943" y1="108.184" x2="114.411" y2="108.184"/>
<ellipse fill="#999999" cx="39.375" cy="35.471" rx="4.437" ry="4.15"/>
<path fill="#999999" d="M33.172,47.466c0-4.616,2.778-8.358,6.204-8.358s6.205,3.742,6.205,8.358"/>
<line fill="#E0E0D1" stroke="#E0E0D1" stroke-width="10" stroke-miterlimit="10" x1="52.569" y1="39.621" x2="114.23" y2="39.621"/>
<rect x="13.472" y="128.541" fill="#BA8051" stroke="#BA8051" stroke-miterlimit="10" width="117.411" height="4.708"/>
</svg>
